<svg width="98" height="78" viewBox="0 0 98 78" fill="none" xmlns="http://www.w3.org/2000/svg">
<path d="M51.0468 31.663C51.0468 32.7232 50.2731 33.5906 49.3273 33.5906C48.3816 33.5906 47.6078 32.7232 47.6078 31.663C47.6078 30.6028 48.3386 29.7354 49.3273 29.7354C50.316 29.7595 51.0468 30.6269 51.0468 31.663ZM43.9969 35.5183C43.9969 35.687 43.9969 36.0002 43.9969 36.0002C43.9969 36.0002 43.1801 34.8195 41.4391 34.8195C38.5804 34.8195 36.3236 37.2772 36.3236 40.6506C36.3236 44.024 38.5374 46.4817 41.4391 46.4817C43.2016 46.4817 43.9969 45.2769 43.9969 45.2769V45.7829C43.9969 46.0239 44.1473 46.1926 44.3623 46.1926H46.4901V35.1087C46.4901 35.1087 44.5342 35.1087 44.3623 35.1087C44.1473 35.1087 43.9969 35.3255 43.9969 35.5183ZM43.9969 42.6264C43.61 43.277 42.8147 43.8312 41.869 43.8312C40.1925 43.8312 38.9028 42.6505 38.9028 40.6506C38.9028 38.6507 40.1925 37.47 41.869 37.47C42.7932 37.47 43.6315 38.0483 43.9969 38.6748V42.6264ZM48.0807 35.1087H50.617V46.1926H48.0807V35.1087ZM85.8023 34.8195C84.0613 34.8195 83.2446 36.0002 83.2446 36.0002V29.7836H80.7083V46.2167C80.7083 46.2167 82.6642 46.2167 82.8362 46.2167C83.0511 46.2167 83.2016 45.9998 83.2016 45.807V45.301C83.2016 45.301 84.0183 46.5058 85.7593 46.5058C88.618 46.5058 90.8749 44.024 90.8749 40.6747C90.8964 37.3013 88.6395 34.8195 85.8023 34.8195ZM85.3939 43.8071C84.4267 43.8071 83.6529 43.2529 83.2661 42.6023V38.6507C83.6529 38.0724 84.5127 37.4459 85.3939 37.4459C87.0705 37.4459 88.3601 38.6266 88.3601 40.6265C88.3601 42.6264 87.0705 43.8071 85.3939 43.8071ZM79.4187 39.6145V46.2167H76.8824V39.9518C76.8824 38.1206 76.3665 37.3736 74.9265 37.3736C74.1527 37.3736 73.3789 37.8074 72.8845 38.4579V46.1926H70.3483V35.1087H72.3472C72.5621 35.1087 72.7126 35.3255 72.7126 35.5183V36.0002C73.4434 35.1328 74.4321 34.8195 75.3993 34.8195C76.4955 34.8195 77.4197 35.1809 78.172 35.8797C79.0748 36.699 79.4187 37.7592 79.4187 39.6145ZM64.2225 34.8195C62.4815 34.8195 61.6648 36.0002 61.6648 36.0002V29.7836H59.1285V46.2167C59.1285 46.2167 61.0844 46.2167 61.2564 46.2167C61.4713 46.2167 61.6218 45.9998 61.6218 45.807V45.301C61.6218 45.301 62.4385 46.5058 64.1796 46.5058C67.0382 46.5058 69.2951 44.024 69.2951 40.6747C69.3381 37.3013 67.1027 34.8195 64.2225 34.8195ZM63.8142 43.8071C62.8469 43.8071 62.0732 43.2529 61.6863 42.6023V38.6507C62.0732 38.0724 62.9329 37.4459 63.8142 37.4459C65.4907 37.4459 66.7803 38.6266 66.7803 40.6265C66.7803 42.6264 65.4907 43.8071 63.8142 43.8071ZM56.9576 34.8195C57.7314 34.8195 58.1183 34.9641 58.1183 34.9641V37.5905C58.1183 37.5905 56.0119 36.7953 54.7008 38.482V46.2408H52.1645V35.1087C52.1645 35.1087 54.1204 35.1087 54.2924 35.1087C54.5073 35.1087 54.6578 35.3255 54.6578 35.5183V36.0002C55.1521 35.3737 56.1838 34.8195 56.9576 34.8195ZM30.7352 45.2047C30.6062 44.8432 30.4772 44.4577 30.3483 44.1445C30.1333 43.6144 29.9184 43.1084 29.7465 42.6505L29.725 42.6264C27.9195 38.1929 25.9635 33.7111 23.9001 29.3017L23.8142 29.133C23.5992 28.6993 23.3843 28.2174 23.1908 27.7354C22.9329 27.2053 22.675 26.6512 22.2451 26.121C21.4069 24.9404 20.2032 24.2898 18.9136 24.2898C17.6025 24.2898 16.4203 24.9404 15.539 26.0488C15.1522 26.5789 14.8512 27.1331 14.5933 27.6632C14.3784 28.1451 14.1634 28.6029 13.97 29.0607L13.884 29.2294C11.8636 33.6629 9.88618 38.1447 8.0592 42.5542L8.03771 42.6023C7.84426 43.0843 7.65082 43.5662 7.43588 44.0963C7.30692 44.4095 7.17796 44.7709 7.04899 45.1565C6.70509 46.2408 6.59762 47.2769 6.72659 48.3371C7.00601 50.5539 8.33862 52.4092 10.1441 53.2285C10.8319 53.5417 11.5412 53.7104 12.272 53.7104C12.4869 53.7104 12.7449 53.6863 12.9598 53.6622C13.8195 53.5417 14.7223 53.2284 15.582 52.6502C16.6567 51.9755 17.6884 50.9876 18.8491 49.59C20.0098 51.0117 21.063 51.9755 22.1162 52.6502C22.9759 53.2044 23.8786 53.5417 24.7384 53.6622C24.9533 53.6863 25.2113 53.7104 25.4262 53.7104C26.157 53.7104 26.9093 53.5658 27.5541 53.2285C29.4026 52.4092 30.6922 50.5057 30.9716 48.3371C31.1865 47.3251 31.0791 46.289 30.7352 45.2047ZM18.8706 46.7227C17.452 44.7228 16.5278 42.8192 16.2054 41.2289C16.0764 40.5542 16.0549 39.9518 16.1194 39.4217C16.1624 38.9398 16.3343 38.5302 16.5493 38.1929C17.0436 37.3977 17.8819 36.8917 18.8706 36.8917C19.8593 36.8917 20.7191 37.3736 21.1919 38.1929C21.4069 38.5543 21.5573 38.9639 21.6218 39.4217C21.7078 39.9518 21.6648 40.5783 21.5358 41.2289C21.2134 42.8192 20.2892 44.6987 18.8706 46.7227ZM29.3596 48.1202C29.1661 49.6623 28.2634 50.9876 26.9738 51.5659C26.3504 51.855 25.6626 51.9514 24.9748 51.855C24.3085 51.7586 23.6637 51.5418 22.9759 51.084C22.0302 50.5057 21.0845 49.59 19.9668 48.2166C21.7078 45.8311 22.761 43.6385 23.1479 41.6867C23.3413 40.7711 23.3628 39.9518 23.2768 39.1808C23.1694 38.4338 22.9329 37.7592 22.5675 37.1809C21.7508 35.8556 20.3752 35.0846 18.8491 35.0846C17.323 35.0846 15.9474 35.8797 15.1307 37.1809C14.7653 37.7592 14.5288 38.4579 14.4214 39.1808C14.3139 39.9518 14.3354 40.7952 14.5503 41.6867C14.9372 43.6385 16.0334 45.8552 17.7314 48.2407C16.6567 49.59 15.6895 50.5057 14.7223 51.108C14.0345 51.5418 13.3897 51.7827 12.7234 51.8791C12.0141 51.9755 11.3263 51.855 10.7244 51.59C9.43481 51.0117 8.51057 49.6623 8.33862 48.1443C8.25265 47.3973 8.31713 46.6745 8.57505 45.8552C8.66103 45.5661 8.78999 45.2769 8.91895 44.9155C9.1124 44.4336 9.30584 43.9517 9.52078 43.4457L9.54227 43.3975C11.3478 39.0121 13.3037 34.5063 15.3241 30.145L15.4101 29.9763C15.625 29.5426 15.84 29.0607 16.0334 28.627C16.2483 28.1451 16.4848 27.7114 16.7642 27.3258C17.323 26.6271 18.0538 26.2415 18.8706 26.2415C19.6874 26.2415 20.4181 26.6271 20.977 27.3258C21.2564 27.7114 21.4928 28.1451 21.7078 28.627C21.9227 29.0607 22.1376 29.5426 22.3311 29.9763L22.4171 30.145C24.416 34.5304 26.3719 39.0362 28.1774 43.4216V43.4457C28.3923 43.9276 28.5643 44.4577 28.7792 44.9155C28.9082 45.2769 29.0372 45.5661 29.1231 45.8552C29.3811 46.6022 29.467 47.3492 29.3596 48.1202Z" fill="#4F5665"/>
</svg>
