<svg width="25" height="24" viewBox="0 0 25 24" fill="none" xmlns="http://www.w3.org/2000/svg">
<path d="M17.3288 12.2965C17.311 10.1722 19.0674 9.13969 19.1446 9.09221C18.1477 7.64434 16.6048 7.44259 16.0649 7.42478C14.7713 7.2883 13.5133 8.20213 12.8546 8.20213C12.1841 8.20213 11.1634 7.44259 10.0716 7.46039C8.66527 7.48412 7.342 8.29707 6.624 9.56693C5.13459 12.1482 6.24423 15.9459 7.6743 18.0346C8.3923 19.0553 9.22305 20.2005 10.3208 20.159C11.3889 20.1174 11.7924 19.4766 13.0801 19.4766C14.3618 19.4766 14.7357 20.159 15.8512 20.1352C17.0024 20.1174 17.7204 19.1087 18.4147 18.0762C19.2395 16.9072 19.5718 15.7501 19.5837 15.6907C19.554 15.6789 17.3525 14.8362 17.3288 12.2965Z" fill="#2948FF"/>
<path d="M15.2226 6.0541C15.7982 5.3361 16.1898 4.35701 16.083 3.36011C15.2523 3.39571 14.2079 3.9357 13.6086 4.64183C13.0805 5.26489 12.6058 6.27959 12.7244 7.23495C13.662 7.30616 14.6233 6.76024 15.2226 6.0541Z" fill="#2948FF"/>
</svg>
