<svg width="98" height="78" viewBox="0 0 98 78" fill="none" xmlns="http://www.w3.org/2000/svg">
<path d="M22.8395 46.845C19.2056 46.845 16.2606 43.4683 16.2606 39.3033C16.2606 35.138 19.2056 31.7645 22.8395 31.7645C24.1203 31.7645 25.3161 32.1831 26.3263 32.9087L22.8395 39.3033L29.4038 34.9597C28.6906 33.6575 27.6677 32.5355 26.4309 31.684C24.857 30.6042 22.6675 29.9359 20.2466 29.9359C16.7931 29.9359 13.7634 31.374 12.0738 33.5277C10.8229 35.1197 10.0781 37.1234 10.0781 39.3031C10.0781 41.4844 10.8229 43.4896 12.0738 45.0828C13.7678 47.2391 16.7524 48.6688 20.1489 48.6688C23.5449 48.6688 26.5286 47.238 28.2236 45.0828C28.3165 44.9641 28.4063 44.8443 28.4913 44.72L28.2354 43.6206C27.0444 45.5687 25.0719 46.845 22.8395 46.845Z" fill="#4F5665"/>
<path d="M44.6019 48.2153L41.8468 36.4372C41.4043 34.5339 39.8919 33.135 38.0913 33.135C37.6243 33.135 37.1769 33.2306 36.7616 33.4037L30.8304 35.8753H36.9307L37.9731 40.3366C36.9619 39.3393 35.6449 38.7325 34.2029 38.7325C31.3394 38.7325 29.021 40.9315 29.021 43.644C29.021 46.3567 31.3394 48.559 34.2029 48.559C36.2644 48.559 38.0874 47.4024 39.2119 45.6257L39.8167 48.2153H44.6019ZM36.1979 46.3859C34.877 46.3859 33.8063 45.1599 33.8063 43.644C33.8063 42.1303 34.877 40.9032 36.1979 40.9032C37.5188 40.9032 38.5906 42.1303 38.5906 43.644C38.5906 45.1599 37.5188 46.3859 36.1979 46.3859Z" fill="#4F5665"/>
<path d="M55.8356 33.1371C55.4741 33.1371 55.1322 33.2287 54.8274 33.3927L51.0191 35.4265C50.8305 34.1274 49.8457 33.1371 48.6577 33.1371C48.2982 33.1371 47.9553 33.2287 47.6465 33.3927L42.9971 35.8754H46.2661V48.2154H51.0513V37.2482C51.0513 36.4915 51.5857 35.8755 52.2481 35.8755C52.9066 35.8755 53.4449 36.4915 53.4449 37.2482V48.2154H58.2282V35.8754C58.2282 34.362 57.1565 33.1372 55.8356 33.1372" fill="#4F5665"/>
<path d="M85.8449 33.1371C85.4824 33.1371 85.1385 33.2287 84.8288 33.3927L81.0245 35.4265C80.8369 34.1274 79.8521 33.1371 78.6641 33.1371C78.3045 33.1371 77.9616 33.2287 77.6519 33.3927L73.0044 35.8754H76.2724V48.2154H81.0567V37.2482C81.0567 36.4915 81.5921 35.8755 82.2545 35.8755C82.9149 35.8755 83.4493 36.4915 83.4493 37.2482V48.2154H88.2366V35.8754C88.2366 34.362 87.1638 33.1372 85.8449 33.1372" fill="#4F5665"/>
<path d="M73.7773 40.9032C73.7773 45.1924 70.7438 48.6687 67.0019 48.6687C63.2572 48.6687 60.2217 45.1924 60.2217 40.9032C60.2217 36.6151 63.2572 33.1371 67.0019 33.1371C70.7438 33.1371 73.7773 36.6152 73.7773 40.9032ZM67.2823 35.494C67.0694 34.5802 66.2497 34.0378 65.4524 34.2834C64.6562 34.5281 64.1804 35.4679 64.3944 36.3816L66.7186 46.312C66.9336 47.2267 67.7513 47.7686 68.5485 47.5268C69.3457 47.2793 69.8196 46.34 69.6056 45.4264L67.2823 35.494Z" fill="#4F5665"/>
</svg>
