<svg width="25" height="25" viewBox="0 0 25 25" fill="none" xmlns="http://www.w3.org/2000/svg">
<path d="M5.42265 5.43523L6.9874 7M22.5 12.5C22.5 18.0229 18.0229 22.5 12.5 22.5C6.97715 22.5 2.5 18.0229 2.5 12.5H22.5ZM22.5 12.5H20.5H22.5ZM22.5 12.5C22.5 9.7418 21.3833 7.24435 19.5774 5.43523L22.5 12.5ZM2.5 12.5H4.5H2.5ZM2.5 12.5C2.5 9.74175 3.6167 7.24435 5.42265 5.43523L2.5 12.5ZM12.5 2.5V4.5V2.5ZM12.5 2.5C15.2646 2.5 17.7672 3.62189 19.5774 5.43523L12.5 2.5ZM12.5 2.5C9.7354 2.5 7.2328 3.62189 5.42265 5.43523L12.5 2.5ZM19.5774 5.43523L18.0126 7L19.5774 5.43523Z" stroke="#2948FF" stroke-linecap="round" stroke-linejoin="round"/>
<path d="M12.5 10.5V16.5" stroke="#2948FF" stroke-linecap="round" stroke-linejoin="round"/>
<path d="M20.4261 18.598C18.5977 20.9711 15.7274 22.5 12.5 22.5C9.2726 22.5 6.4023 20.9711 4.57385 18.598C6.91045 17.2629 9.61615 16.5 12.5 16.5C15.3838 16.5 18.0895 17.2629 20.4261 18.598Z" stroke="#2948FF" stroke-linecap="round" stroke-linejoin="round"/>
</svg>
