<svg width="98" height="78" viewBox="0 0 98 78" fill="none" xmlns="http://www.w3.org/2000/svg">
<path d="M48.3119 11.0447H49.8385C57.2641 11.5215 62.5586 14.7323 66.4837 19.2322C70.409 23.732 73.3105 29.6669 73.6983 38.1586V39.8409C73.3213 48.4684 70.3685 54.1625 66.4837 58.7954C62.4029 63.1961 57.3863 66.5304 49.8139 66.9546H48.3119C40.8873 66.4768 35.5919 63.2673 31.6667 58.7673C27.7415 54.2674 24.8399 48.3326 24.4521 39.8409V38.1586C24.4715 38.1525 24.4809 38.1352 24.4768 38.1025C24.8481 29.6432 27.7655 23.6467 31.6668 19.2041C35.586 14.7409 40.9354 11.5071 48.3119 11.0447ZM43.4858 15.0543C42.0228 15.5004 40.7107 16.0669 39.5215 16.7366C35.9018 18.7748 32.9167 21.6909 30.8295 25.4287C28.7924 29.0772 27.0285 33.7706 27.2839 39.925C27.445 43.805 28.2224 47.0687 29.4506 49.8509C31.876 55.3441 35.5686 59.3917 40.6789 61.8517C43.2059 63.0682 46.3372 63.9215 49.8633 63.7303C53.2455 63.5469 56.1763 62.6811 58.6045 61.2909C63.3634 58.5661 67.1139 54.3619 69.1925 48.5611C70.2438 45.6268 71.0388 42.2369 70.8669 38.1305C70.5416 30.3515 67.7629 25.0769 64.0957 21.0546C62.2811 19.0644 60.0962 17.3714 57.5213 16.1478C55.0231 14.9606 51.7708 14.0803 48.2876 14.2692C46.5752 14.362 44.9598 14.6048 43.4858 15.0543Z" fill="#4F5665"/>
<path d="M46.8103 31.7375C47.5904 32.3258 48.3884 32.8939 49.1249 33.532C47.4611 34.7217 45.83 35.9487 44.1757 37.1491C44.4269 37.3678 44.7125 37.5472 44.9635 37.7659C46.6317 36.5625 48.3003 35.3598 49.9621 34.1489C50.7074 34.6742 51.4411 35.2125 52.129 35.8032C50.4639 37.0009 48.8545 38.2618 47.2044 39.4763C47.4489 39.7027 47.7486 39.866 48.0168 40.0652C49.7224 38.8764 51.3855 37.6392 53.0645 36.4202V32.4385H56.758V40.3737C57.8003 40.439 58.9496 40.383 60.033 40.4015V44.1309H53.0645V40.3454C51.0171 41.7619 48.919 43.3636 46.8595 44.8598C44.7148 43.2739 42.6478 41.5991 40.5068 40.0091C39.8865 42.2477 38.4134 43.9319 35.976 44.1309C34.4559 44.2547 32.7285 44.0384 30.9775 44.1309V32.4385C33.1665 32.6037 35.5702 32.1052 37.3057 32.7189C38.8401 33.2616 39.928 34.6558 40.4328 36.392C42.5754 34.8596 44.6836 33.2883 46.8103 31.7375ZM34.4985 36.1958V40.4016C35.3784 40.4066 36.0475 40.4647 36.5668 40.0092C37.3394 39.3316 37.4951 37.6517 36.813 36.7565C36.3579 36.1593 35.5894 36.0339 34.5231 36.1117C34.4946 36.1164 34.4964 36.156 34.4985 36.1958ZM60.9931 32.4385H64.6865V40.4016H67.9368V44.131H60.9683V32.5227C60.9663 32.4829 60.9643 32.4432 60.9931 32.4385Z" fill="#4F5665"/>
</svg>
