<svg width="98" height="78" viewBox="0 0 98 78" fill="none" xmlns="http://www.w3.org/2000/svg">
<path d="M49.374 18.2539L42.8813 23.0616L49.374 27.8693L42.8813 32.6769L36.3887 27.8292L42.8813 23.0215L36.3887 18.2539L42.8813 13.4463L49.374 18.2539ZM42.8468 34.1994L49.3395 29.3917L55.8321 34.1994L49.3395 39.007L42.8468 34.1994ZM49.374 27.8292L55.8667 23.0215L49.374 18.2539L55.8321 13.4463L62.3248 18.2539L55.8321 23.0616L62.3248 27.8693L55.8321 32.6769L49.374 27.8292Z" fill="#4F5665"/>
<path d="M12.54 46.5028H17.2861C20.3149 46.5028 22.8128 48.5066 22.8128 53.0866V54.0527C22.8128 58.6686 20.471 60.7439 17.3798 60.7439H12.54V46.5028ZM15.1941 49.0791V58.1318H17.2237C18.941 58.1318 20.0963 56.8437 20.0963 53.9812V53.2297C20.0963 50.3672 18.8785 49.0791 17.13 49.0791H15.1941ZM24.2179 49.2222H26.3411L26.6846 51.9058C27.0905 50.081 28.1209 49.1149 29.9943 49.1149H30.6501V52.1921H29.5572C27.4027 52.1921 26.8719 53.0508 26.8719 55.484V60.7797H24.2491V49.2222H24.2179ZM31.1809 55.2335V54.9115C31.1809 51.0471 33.3353 48.936 36.2704 48.936C39.2679 48.936 41.3599 51.0471 41.3599 54.9115V55.2335C41.3599 59.0264 39.3304 61.0659 36.2704 61.0659C33.0231 61.0301 31.1809 59.0264 31.1809 55.2335ZM38.6747 55.1977V54.9115C38.6747 52.7646 37.7379 51.4764 36.2392 51.4764C34.7716 51.4764 33.8037 52.6572 33.8037 54.9115V55.1977C33.8037 57.2731 34.7404 58.4539 36.2392 58.4539C37.7379 58.4181 38.6747 57.2731 38.6747 55.1977ZM42.7338 49.2222H44.9195L45.1693 51.4049C45.7001 49.9378 46.8242 48.936 48.479 48.936C51.0394 48.936 52.7255 51.0471 52.7255 54.9473V55.2693C52.7255 59.0622 50.8521 61.0659 48.479 61.0659C46.8866 61.0659 45.7938 60.2429 45.263 58.919V64.7514H42.7026L42.7338 49.2222ZM50.0715 55.1977V54.9473C50.0715 52.6572 49.0411 51.5122 47.6672 51.5122C46.1997 51.5122 45.2317 52.8004 45.2317 54.9473V55.162C45.2317 57.2015 46.1685 58.4896 47.636 58.4896C49.1348 58.4539 50.0715 57.3446 50.0715 55.1977ZM56.5973 58.6328L56.3788 60.7439H54.1306V45.3578H56.691V51.2618C57.253 49.7589 58.3771 48.936 59.9695 48.936C62.3738 48.9717 64.1536 50.8682 64.1536 54.6968V55.0546C64.1536 58.8832 62.4675 61.0659 59.9071 61.0659C58.221 61.0301 57.1281 60.1356 56.5973 58.6328ZM61.4683 55.0546V54.7684C61.4683 52.6572 60.4691 51.4764 59.064 51.4764C57.6277 51.4764 56.6286 52.8004 56.6286 54.8041V55.0546C56.6286 57.2015 57.5965 58.4539 59.0328 58.4539C60.5628 58.4539 61.4683 57.3446 61.4683 55.0546ZM65.2776 55.2335V54.9115C65.2776 51.0471 67.4321 48.936 70.3672 48.936C73.3647 48.936 75.4567 51.0471 75.4567 54.9115V55.2335C75.4567 59.0264 73.3959 61.0659 70.3672 61.0659C67.1199 61.0301 65.2776 59.0264 65.2776 55.2335ZM72.8027 55.1977V54.9115C72.8027 52.7646 71.8659 51.4764 70.3672 51.4764C68.8996 51.4764 67.9317 52.6572 67.9317 54.9115V55.1977C67.9317 57.2731 68.8684 58.4539 70.3672 58.4539C71.8659 58.4181 72.8027 57.2731 72.8027 55.1977ZM78.8914 54.7684L75.363 49.2222H78.3918L80.4214 52.693L82.4821 49.2222H85.4797L81.8889 54.7326L85.667 60.7439H82.7007L80.3901 56.9153L78.142 60.7439H75.0508L78.8914 54.7684Z" fill="#4F5665"/>
</svg>
