<svg width="98" height="78" viewBox="0 0 98 78" fill="none" xmlns="http://www.w3.org/2000/svg">
<path d="M60.1632 18.5599C62.2564 17.3886 63.2937 17.5423 63.317 18.7296C63.345 20.2719 63.1449 22.3229 63.0006 23.8069C62.2238 31.8729 60.926 38.4639 60.8283 46.7456C64.2472 36.6609 67.1126 29.6517 70.806 21.0191C71.9783 18.2684 72.7272 18.7826 73.69 18.2949C77.4393 16.3923 77.5789 17.5582 77.0904 19.885C75.2716 28.5027 70.6152 55.6362 69.9037 59.8142C69.6989 61.0231 68.5454 60.5106 68.2476 60.0379C66.9127 57.9338 65.4056 57.9009 65.5729 56.5018C66.4103 49.536 69.4245 32.0589 70.2107 27.9408C66.2055 37.2963 62.0517 48.9917 59.9165 55.623C59.4653 57.0312 58.6419 56.9279 58.1304 55.8976C57.4093 54.4502 56.0092 53.7113 55.7765 52.001C55.0463 46.5633 56.6139 36.1987 56.8324 29.6416C54.6509 36.8045 50.9901 50.711 49.3852 56.994C48.7247 59.5937 46.5198 59.1696 47.1059 56.6358C49.5433 46.0915 54.7951 27.4426 57.0651 20.7382C57.6002 19.1587 59.0002 19.2117 60.1632 18.5599Z" fill="#4F5665"/>
<path d="M46.8678 17.2668C46.1608 17.0708 44.1094 18.3322 42.8488 18.5812C42.4488 18.6607 42.0673 19.143 41.9324 19.4875C39.9135 24.7716 38.1041 29.8086 36.5365 34.3973C34.5316 34.7874 32.1873 35.301 29.5637 35.9724C31.443 30.4801 33.3409 25.063 35.1922 19.8532C36.1039 17.2879 33.7037 17.0442 32.7733 19.6412C31.5639 23.0173 29.2985 29.3428 26.7913 36.7155C24.9492 37.2301 22.9956 37.8184 20.9535 38.4905C19.4695 38.9786 19.4091 39.4291 20.0511 40.443C20.4046 41.0075 21.1349 40.9506 21.4698 41.3529C22.335 42.3955 22.8607 43.6425 24.4096 43.8312C23.028 48.042 21.6465 52.3843 20.3952 56.5654C19.6091 59.1899 21.8465 59.7267 22.7071 56.9495C24.0933 52.4727 25.5539 47.9417 27.0564 43.4241C28.3077 43.0928 31.3359 42.3497 34.1315 41.6586C31.9127 48.5877 30.452 53.8501 29.8985 56.4116C29.7962 56.9044 29.9683 57.1779 30.0613 57.3788C30.8102 58.6206 31.5219 58.6714 32.4848 60.2068C32.7454 60.6255 33.6199 60.8513 33.9175 59.8204C35.9735 52.7444 38.0901 46.1052 40.0623 40.1533C40.881 39.9493 42.3555 39.5439 43.2579 38.0095C44.8627 35.2863 45.3232 35.8386 45.7094 35.0108C46.1932 33.9715 45.8721 32.9957 44.1604 33.2368C44.1604 33.2368 43.5138 33.2893 42.3183 33.4446C44.2162 27.877 45.8768 23.1547 47.0723 19.5561C47.4818 18.3374 47.533 17.447 46.8678 17.2668Z" fill="#4F5665"/>
<path d="M44.068 53.3777C44.5098 54.6502 45.8914 54.2649 45.3657 52.7291C44.8307 51.1644 43.5004 46.4544 43.1515 44.937C42.6771 42.8923 44.733 43.4514 43.6911 44.7882C42.798 45.9376 42.2025 46.3982 40.5513 48.5839C38.9558 50.6938 39.3884 53.4318 41.0955 54.0366C43.0213 54.7192 44.7192 52.3014 45.7704 50.5275C46.7891 48.8098 45.8029 47.8023 44.7749 48.8178C44.1144 49.4707 43.3515 50.4734 42.5793 51.014C41.9513 51.4491 41.4582 50.9817 42.2956 49.6684C43.2678 48.1479 44.3562 46.8738 45.1656 45.4369C46.817 42.5087 43.5515 40.8207 42.1467 42.7228C41.3931 43.7367 41.5838 44.7321 41.7885 45.5864C42.1189 46.9548 43.3469 51.323 44.068 53.3777Z" fill="#4F5665"/>
</svg>
