<svg width="98" height="78" viewBox="0 0 98 78" fill="none" xmlns="http://www.w3.org/2000/svg">
<path d="M85.4878 54.0347V51.9954H83.2652V48.825L83.1904 48.8512L81.1028 49.5789L81.0617 49.5932V51.9954H77.7667V50.6573C77.7667 50.0342 77.889 49.5573 78.13 49.2393C78.3693 48.9251 78.7117 48.7654 79.1482 48.7654C79.4621 48.7654 79.7871 48.8497 80.1141 49.0158L80.196 49.0575V46.9098L80.1575 46.8937C79.8525 46.7688 79.4374 46.7058 78.9231 46.7058C78.2748 46.7058 77.6857 46.8665 77.172 47.1851C76.658 47.504 76.2536 47.9595 75.9705 48.5385C75.6881 49.1169 75.5449 49.7849 75.5449 50.5241V51.9954H73.9973V54.0347H75.5449V62.6257H77.7667V54.0347H81.0617V59.4942C81.0617 61.7426 81.9925 62.8822 83.8282 62.8822C84.13 62.8822 84.4474 62.8418 84.7716 62.7628C85.1016 62.6819 85.3263 62.601 85.4586 62.5147L85.4878 62.495V60.4368L85.3975 60.505C85.2769 60.5967 85.1268 60.6714 84.9507 60.7269C84.7738 60.7836 84.6262 60.812 84.5118 60.812C84.0817 60.812 83.7636 60.68 83.5661 60.4194C83.3665 60.1565 83.2652 59.6966 83.2652 59.0535V54.0347H85.4878ZM69.0357 60.8122C68.2293 60.8122 67.5935 60.5076 67.1455 59.9074C66.6947 59.3042 66.4663 58.4443 66.4663 57.3518C66.4663 56.2246 66.6947 55.3423 67.1457 54.7285C67.594 54.1187 68.2238 53.8092 69.0176 53.8092C69.788 53.8092 70.4012 54.1048 70.8404 54.6882C71.282 55.2746 71.5059 56.1498 71.5059 57.2902C71.5059 58.4446 71.2953 59.3313 70.8798 59.9244C70.4673 60.5132 69.8469 60.8122 69.0357 60.8122ZM69.1347 51.7393C67.5961 51.7393 66.3741 52.2529 65.503 53.2659C64.6323 54.2791 64.1908 55.6811 64.1908 57.4335C64.1908 59.0978 64.6217 60.4366 65.4717 61.4119C66.3217 62.3877 67.4785 62.8819 68.9096 62.8819C70.401 62.8819 71.5986 62.3612 72.4695 61.3341C73.3403 60.308 73.7815 58.9193 73.7815 57.2079C73.7815 55.5175 73.3675 54.1688 72.5506 53.1999C71.7334 52.2306 70.5838 51.7393 69.1347 51.7393ZM60.6086 51.7392C59.5621 51.7392 58.6964 52.0442 58.0351 52.6456C57.3698 53.2504 57.0324 54.0439 57.0324 55.004C57.0324 55.503 57.1053 55.9463 57.2486 56.3222C57.3928 56.6996 57.6161 57.0316 57.9125 57.3103C58.2069 57.5868 58.661 57.8765 59.263 58.1711C59.7689 58.4084 60.1464 58.6091 60.3861 58.7673C60.6204 58.9222 60.7868 59.0782 60.8807 59.2299C60.9719 59.3784 61.0183 59.5815 61.0183 59.8325C61.0183 60.5466 60.5489 60.8941 59.583 60.8941C59.2248 60.8941 58.8161 60.809 58.3684 60.6408C57.9204 60.473 57.5019 60.2317 57.1246 59.9222L57.0324 59.8469V62.284L57.0662 62.302C57.3807 62.4673 57.7769 62.6066 58.2441 62.7164C58.7104 62.8262 59.1339 62.8822 59.502 62.8822C60.6376 62.8822 61.5521 62.5757 62.2194 61.9708C62.8909 61.3617 63.2313 60.5496 63.2313 59.5561C63.2313 58.8396 63.0481 58.2251 62.6869 57.7296C62.3283 57.238 61.7058 56.7868 60.8375 56.3879C60.1458 56.0715 59.7026 55.8089 59.5199 55.6074C59.3436 55.4127 59.2542 55.1373 59.2542 54.7886C59.2542 54.4794 59.3646 54.2318 59.5914 54.0312C59.8199 53.8295 60.1379 53.727 60.5368 53.727C60.907 53.727 61.2858 53.7936 61.6624 53.9242C62.0388 54.0547 62.3694 54.2296 62.6454 54.4435L62.7361 54.5142V52.2023L62.7013 52.1852C62.4467 52.0609 62.1109 51.9544 61.7032 51.8681C61.2971 51.7825 60.9288 51.7392 60.6086 51.7392ZM51.2403 60.8122C50.4342 60.8122 49.7982 60.5076 49.3502 59.9074C48.8993 59.3042 48.6713 58.4446 48.6713 57.3518C48.6713 56.2246 48.8996 55.3423 49.3507 54.7285C49.7987 54.1187 50.4283 53.8092 51.2225 53.8092C51.9926 53.8092 52.6058 54.1048 53.0452 54.6882C53.4867 55.2746 53.7107 56.1498 53.7107 57.2902C53.7107 58.4446 53.4999 59.3313 53.0844 59.9244C52.6719 60.5132 52.0518 60.8122 51.2403 60.8122ZM51.3395 51.7393C49.8006 51.7393 48.5786 52.2529 47.7078 53.2659C46.8372 54.2791 46.3954 55.6811 46.3954 57.4335C46.3954 59.0985 46.8266 60.4366 47.6766 61.4119C48.5266 62.3877 49.6832 62.8819 51.1145 62.8819C52.6055 62.8819 53.8035 62.3612 54.6744 61.3341C55.5449 60.308 55.9864 58.9193 55.9864 57.2079C55.9864 55.5175 55.5723 54.1688 54.7553 53.1999C53.9378 52.2306 52.7885 51.7393 51.3395 51.7393ZM43.0228 53.8363V51.9954H40.8281V62.6254H43.0228V57.1878C43.0228 56.2631 43.2068 55.5035 43.5698 54.9298C43.9283 54.3629 44.406 54.0756 44.9892 54.0756C45.1869 54.0756 45.4087 54.1128 45.6491 54.1862C45.887 54.2593 46.0592 54.3385 46.1609 54.4219L46.2531 54.4981V51.9772L46.2175 51.9598C46.0131 51.8608 45.724 51.8109 45.3582 51.8109C44.8067 51.8109 44.3131 52.0128 43.8904 52.4103C43.5194 52.7597 43.2511 53.2388 43.0461 53.8363H43.0228ZM36.8979 51.7392C35.8912 51.7392 34.9931 51.9853 34.2291 52.4701C33.4636 52.9561 32.8717 53.65 32.4689 54.5324C32.068 55.4127 31.8644 56.4409 31.8644 57.5874C31.8644 58.5918 32.0618 59.5135 32.4519 60.3258C32.8423 61.1394 33.3948 61.776 34.0942 62.2175C34.7926 62.6585 35.5997 62.8822 36.4934 62.8822C37.5364 62.8822 38.4269 62.6445 39.1409 62.176L39.1697 62.1571V59.8663L39.0775 59.943C38.7541 60.2114 38.3926 60.4256 38.0038 60.58C37.6159 60.7342 37.2622 60.8122 36.9522 60.8122C36.091 60.8122 35.3998 60.5051 34.8979 59.8999C34.395 59.2938 34.14 58.4428 34.14 57.3719C34.14 56.2942 34.4059 55.4214 34.93 54.7772C35.4524 54.135 36.145 53.8093 36.9884 53.8093C37.7098 53.8093 38.4127 54.0877 39.0777 54.6373L39.1697 54.7134V52.2996L39.14 52.2806C38.8897 52.121 38.5484 51.9892 38.1246 51.8892C37.7028 51.7896 37.2901 51.7392 36.8979 51.7392ZM30.3529 51.9954H28.1582V62.6255H30.3529V51.9954ZM29.278 47.4669C28.9168 47.4669 28.6017 47.607 28.3429 47.8846C28.083 48.1631 27.9511 48.5136 27.9511 48.9272C27.9511 49.3344 28.0814 49.6785 28.3388 49.9495C28.5945 50.2197 28.9105 50.3567 29.278 50.3567C29.6453 50.3567 29.9626 50.2197 30.2214 49.95C30.4819 49.6785 30.6139 49.3344 30.6139 48.9272C30.6139 48.5281 30.4855 48.181 30.2321 47.8958C29.979 47.6112 29.658 47.4669 29.278 47.4669ZM23.8022 51.2111V62.6254H26.0419V47.7924H22.9421L19.0019 58.8099L15.1782 47.7924H11.9521V62.6254H14.0569V51.21H14.1292L18.1669 62.6254H19.7553L23.73 51.2111H23.8022Z" fill="#4F5665"/>
<path d="M46.7314 26.3012H36.4072V14.5381H46.7314V26.3012Z" fill="#4F5665"/>
<path d="M58.1312 26.3012H47.8071V14.5381H58.1312V26.3012Z" fill="#4F5665"/>
<path d="M46.7312 39.2939H36.4072V27.5308H46.7312V39.2939Z" fill="#4F5665"/>
<path d="M58.1312 39.2939H47.8071V27.5308H58.1312V39.2939Z" fill="#4F5665"/>
</svg>
