<svg width="16" height="16" viewBox="0 0 16 16" fill="none" xmlns="http://www.w3.org/2000/svg">
<path d="M4.00033 7.33333C3.86847 7.33333 3.73958 7.37243 3.62995 7.44568C3.52031 7.51894 3.43486 7.62305 3.38441 7.74487C3.33395 7.86669 3.32074 8.00073 3.34647 8.13006C3.37219 8.25938 3.43569 8.37816 3.52892 8.4714C3.62216 8.56463 3.74094 8.62813 3.87027 8.65385C3.99959 8.67958 4.13363 8.66637 4.25545 8.61591C4.37726 8.56546 4.48138 8.48001 4.55464 8.37038C4.62789 8.26074 4.66699 8.13185 4.66699 8C4.66699 7.82318 4.59675 7.65361 4.47173 7.52859C4.34671 7.40357 4.17714 7.33333 4.00033 7.33333ZM12.0003 7.33333C11.8685 7.33333 11.7396 7.37243 11.6299 7.44568C11.5203 7.51894 11.4349 7.62305 11.3844 7.74487C11.3339 7.86669 11.3207 8.00073 11.3465 8.13006C11.3722 8.25938 11.4357 8.37816 11.5289 8.4714C11.6222 8.56463 11.7409 8.62813 11.8703 8.65385C11.9996 8.67958 12.1336 8.66637 12.2554 8.61591C12.3773 8.56546 12.4814 8.48001 12.5546 8.37038C12.6279 8.26074 12.667 8.13185 12.667 8C12.667 7.82318 12.5968 7.65361 12.4717 7.52859C12.3467 7.40357 12.1771 7.33333 12.0003 7.33333ZM13.3337 3.33333H2.66699C2.13656 3.33333 1.62785 3.54404 1.25278 3.91911C0.877706 4.29419 0.666992 4.8029 0.666992 5.33333V10.6667C0.666992 11.1971 0.877706 11.7058 1.25278 12.0809C1.62785 12.4559 2.13656 12.6667 2.66699 12.6667H13.3337C13.8641 12.6667 14.3728 12.4559 14.7479 12.0809C15.1229 11.7058 15.3337 11.1971 15.3337 10.6667V5.33333C15.3337 4.8029 15.1229 4.29419 14.7479 3.91911C14.3728 3.54404 13.8641 3.33333 13.3337 3.33333ZM14.0003 10.6667C14.0003 10.8435 13.9301 11.013 13.8051 11.1381C13.68 11.2631 13.5105 11.3333 13.3337 11.3333H2.66699C2.49018 11.3333 2.32061 11.2631 2.19559 11.1381C2.07056 11.013 2.00033 10.8435 2.00033 10.6667V5.33333C2.00033 5.15652 2.07056 4.98695 2.19559 4.86192C2.32061 4.7369 2.49018 4.66666 2.66699 4.66666H13.3337C13.5105 4.66666 13.68 4.7369 13.8051 4.86192C13.9301 4.98695 14.0003 5.15652 14.0003 5.33333V10.6667ZM8.00033 5.99999C7.60476 5.99999 7.21808 6.11729 6.88918 6.33706C6.56029 6.55682 6.30394 6.86918 6.15257 7.23463C6.00119 7.60008 5.96158 8.00221 6.03875 8.39018C6.11592 8.77814 6.30641 9.1345 6.58611 9.41421C6.86582 9.69391 7.22218 9.8844 7.61014 9.96157C7.99811 10.0387 8.40024 9.99913 8.76569 9.84775C9.13114 9.69638 9.4435 9.44003 9.66326 9.11114C9.88303 8.78224 10.0003 8.39556 10.0003 8C10.0003 7.46956 9.78961 6.96085 9.41454 6.58578C9.03947 6.21071 8.53076 5.99999 8.00033 5.99999ZM8.00033 8.66666C7.86847 8.66666 7.73958 8.62756 7.62994 8.55431C7.52031 8.48105 7.43486 8.37694 7.38441 8.25512C7.33395 8.1333 7.32074 7.99926 7.34647 7.86994C7.37219 7.74061 7.43569 7.62183 7.52892 7.52859C7.62216 7.43536 7.74094 7.37186 7.87027 7.34614C7.99959 7.32041 8.13363 7.33362 8.25545 7.38408C8.37726 7.43453 8.48138 7.51998 8.55464 7.62961C8.62789 7.73925 8.66699 7.86814 8.66699 8C8.66699 8.17681 8.59675 8.34637 8.47173 8.4714C8.34671 8.59642 8.17714 8.66666 8.00033 8.66666Z" fill="#4F5665"/>
</svg>
