<svg width="24" height="24" viewBox="0 0 24 24" fill="none" xmlns="http://www.w3.org/2000/svg">
<path fill-rule="evenodd" clip-rule="evenodd" d="M15.7501 7.50034C15.7501 8.4949 15.355 9.44872 14.6518 10.152C13.9485 10.8553 12.9947 11.2503 12.0001 11.2503C11.0055 11.2503 10.0517 10.8553 9.34846 10.152C8.64518 9.44872 8.25009 8.4949 8.25009 7.50034C8.25009 6.50578 8.64518 5.55195 9.34846 4.84869C10.0517 4.14543 11.0055 3.75034 12.0001 3.75034C12.9947 3.75034 13.9485 4.14543 14.6518 4.84869C15.355 5.55195 15.7501 6.50578 15.7501 7.50034ZM15.8416 12.1098C16.7885 11.3203 17.4692 10.2582 17.7913 9.06805C18.1132 7.87788 18.0605 6.61744 17.6407 5.45821C17.2208 4.29898 16.454 3.29723 15.4447 2.58925C14.4353 1.88128 13.2323 1.50146 11.9993 1.50146C10.7664 1.50146 9.56342 1.88128 8.55402 2.58925C7.54463 3.29723 6.77783 4.29898 6.35798 5.45821C5.93811 6.61744 5.88555 7.87788 6.20747 9.06805C6.52938 10.2582 7.21013 11.3203 8.1571 12.1098C6.68048 12.8079 5.4215 13.8945 4.51494 15.253C3.60839 16.6117 3.08838 18.1912 3.01059 19.8228C3.00336 20.1168 3.11151 20.4019 3.31191 20.617C3.5123 20.8323 3.78899 20.9605 4.08275 20.9742C4.37649 20.988 4.66394 20.8861 4.88352 20.6905C5.10311 20.4949 5.23739 20.2212 5.25759 19.9278C5.33937 18.1945 6.08544 16.5594 7.34096 15.3618C8.59646 14.1641 10.265 13.4959 12.0001 13.4959C13.7352 13.4959 15.4037 14.1641 16.6592 15.3618C17.9147 16.5594 18.6608 18.1945 18.7426 19.9278C18.7463 20.0776 18.7798 20.2251 18.8413 20.3617C18.9028 20.4984 18.991 20.6214 19.1006 20.7234C19.2103 20.8255 19.3393 20.9047 19.4798 20.9563C19.6205 21.0079 19.7701 21.0309 19.9198 21.0238C20.0695 21.0169 20.2162 20.98 20.3515 20.9155C20.4866 20.851 20.6077 20.7603 20.7073 20.6484C20.807 20.5365 20.8832 20.4058 20.9317 20.2641C20.9803 20.1223 20.9999 19.9722 20.9896 19.8228C20.9116 18.1911 20.3914 16.6114 19.4846 15.2527C18.5777 13.8942 17.3185 12.8077 15.8416 12.1098Z" fill="#4F5665"/>
</svg>
